<?xml version="1.0" standalone="no"?>
<!DOCTYPE svg PUBLIC "-//W3C//DTD SVG 20010904//EN"
 "http://www.w3.org/TR/2001/REC-SVG-20010904/DTD/svg10.dtd">
<svg version="1.0" xmlns="http://www.w3.org/2000/svg"
 width="512.000000pt" height="512.000000pt" viewBox="0 0 512.000000 512.000000"
 preserveAspectRatio="xMidYMid meet">
<metadata>
Created by potrace 1.11, written by Peter Selinger 2001-2013
</metadata>
<g transform="translate(0.000000,512.000000) scale(0.100000,-0.100000)"
fill="#000000" stroke="none">
<path d="M840 5101 c-214 -58 -375 -220 -427 -428 -15 -62 -17 -240 -19 -2168
-1 -1155 -2 -2102 -3 -2106 -1 -3 -54 -5 -118 -6 -129 -1 -152 -7 -202 -49
-57 -47 -71 -92 -71 -226 l0 -118 1870 0 1870 0 1 48 c3 187 -4 222 -55 278
-51 57 -94 69 -234 68 l-102 -1 0 31 c-1 43 -1 1629 0 1692 l0 51 78 -3 c209
-8 260 -32 287 -134 19 -71 24 -136 31 -390 3 -118 7 -231 9 -250 2 -19 6 -71
9 -115 33 -430 184 -726 426 -832 105 -46 264 -60 380 -34 121 28 248 112 328
217 79 103 152 302 178 484 2 19 7 45 9 56 3 12 7 50 10 85 3 35 8 82 11 104
3 22 8 440 11 930 5 957 6 944 -47 1060 -23 51 -130 220 -149 235 -3 3 -28 32
-56 65 -27 33 -59 69 -70 81 -11 11 -54 58 -95 103 -143 159 -805 829 -850
861 -122 87 -300 -6 -300 -157 0 -33 7 -68 19 -91 11 -20 143 -162 295 -315
152 -154 276 -282 277 -285 0 -4 2 -153 4 -332 3 -342 4 -351 35 -431 41 -102
89 -160 345 -414 l202 -200 -2 -475 c-2 -431 -7 -586 -21 -691 -2 -20 -6 -54
-9 -75 -20 -198 -94 -373 -175 -416 -44 -23 -130 -24 -177 -2 -71 34 -136 174
-168 363 -23 136 -34 292 -40 576 -5 230 -9 265 -50 430 -14 59 -74 156 -131
213 -108 108 -248 157 -480 167 -65 3 -119 7 -122 9 -2 2 -3 456 -3 1008 0
1120 2 1081 -68 1223 -57 114 -145 203 -258 260 -127 63 -53 59 -1133 62 -916
2 -990 1 -1050 -16z m2007 -399 c49 -26 88 -79 100 -137 8 -38 8 -1234 1
-1265 -7 -28 -36 -75 -60 -97 -58 -55 -21 -53 -1016 -53 -817 0 -924 2 -959
16 -52 22 -82 51 -105 102 -19 42 -20 70 -19 673 1 675 0 665 52 721 29 30 63
49 104 58 17 3 442 6 945 5 l915 0 42 -23z"/>
</g>
</svg>
